<svg width="119" height="63" viewBox="0 0 119 63" fill="none" xmlns="http://www.w3.org/2000/svg">
<path d="M40.2053 5C37.8682 5 35.6269 6.0119 33.9743 7.81311L28.581 13.6915C26.9284 15.4927 26 17.9356 26 20.4829C26 25.7874 29.9453 30.0875 34.812 30.0875C37.1492 30.0875 39.3905 29.0755 41.0431 27.2743L44.7737 23.2082C44.7737 23.2081 44.7737 23.2083 44.7737 23.2082L55.6433 11.361C56.4326 10.5008 57.503 10.0175 58.6192 10.0175C60.4879 10.0175 62.0722 11.345 62.6215 13.1819L66.0519 9.44296C64.487 6.77146 61.7429 5 58.6192 5C56.2821 5 54.0408 6.0119 52.3882 7.81311L37.788 23.7265C36.9987 24.5867 35.9282 25.07 34.812 25.07C32.4877 25.07 30.6035 23.0163 30.6035 20.4829C30.6035 19.2663 31.0469 18.0996 31.8361 17.2393L37.2294 11.361C38.0187 10.5008 39.0891 10.0175 40.2053 10.0175C42.0741 10.0175 43.6583 11.345 44.2076 13.182L47.6381 9.44305C46.0731 6.77151 43.3291 5 40.2053 5Z" fill="#778DA9"/>
<path d="M56.3567 23.7265C55.5675 24.5867 54.497 25.07 53.3808 25.07C51.5123 25.07 49.9282 23.7428 49.3788 21.9062L45.9484 25.6451C47.5135 28.3162 50.2574 30.0875 53.3808 30.0875C55.7179 30.0875 57.9593 29.0755 59.6118 27.2743L74.2121 11.361C75.0013 10.5008 76.0718 10.0175 77.188 10.0175C79.5124 10.0175 81.3966 12.0712 81.3966 14.6046C81.3966 15.8211 80.9532 16.9879 80.1639 17.8481L74.7706 23.7265C73.9814 24.5867 72.9109 25.07 71.7947 25.07C69.9261 25.07 68.3419 23.7426 67.7925 21.9058L64.3622 25.6447C65.9271 28.3161 68.6711 30.0875 71.7947 30.0875C74.1318 30.0875 76.3732 29.0755 78.0257 27.2743L83.419 21.396C85.0716 19.5948 86 17.1519 86 14.6046C86 9.30011 82.0548 5 77.188 5C74.8509 5 72.6095 6.0119 70.957 7.81311L56.3567 23.7265Z" fill="#778DA9"/>
<path d="M17.01 33.94V38.05H11.43V55H6.3V38.05H0.72V33.94H17.01ZM30.2046 55.24C28.5646 55.24 27.0846 54.89 25.7646 54.19C24.4646 53.49 23.4346 52.49 22.6746 51.19C21.9346 49.89 21.5646 48.37 21.5646 46.63C21.5646 44.91 21.9446 43.4 22.7046 42.1C23.4646 40.78 24.5046 39.77 25.8246 39.07C27.1446 38.37 28.6246 38.02 30.2646 38.02C31.9046 38.02 33.3846 38.37 34.7046 39.07C36.0246 39.77 37.0646 40.78 37.8246 42.1C38.5846 43.4 38.9646 44.91 38.9646 46.63C38.9646 48.35 38.5746 49.87 37.7946 51.19C37.0346 52.49 35.9846 53.49 34.6446 54.19C33.3246 54.89 31.8446 55.24 30.2046 55.24ZM30.2046 50.8C31.1846 50.8 32.0146 50.44 32.6946 49.72C33.3946 49 33.7446 47.97 33.7446 46.63C33.7446 45.29 33.4046 44.26 32.7246 43.54C32.0646 42.82 31.2446 42.46 30.2646 42.46C29.2646 42.46 28.4346 42.82 27.7746 43.54C27.1146 44.24 26.7846 45.27 26.7846 46.63C26.7846 47.97 27.1046 49 27.7446 49.72C28.4046 50.44 29.2246 50.8 30.2046 50.8ZM49.8162 40.63C50.3162 39.85 51.0062 39.22 51.8862 38.74C52.7662 38.26 53.7962 38.02 54.9762 38.02C56.3562 38.02 57.6062 38.37 58.7262 39.07C59.8462 39.77 60.7262 40.77 61.3662 42.07C62.0262 43.37 62.3562 44.88 62.3562 46.6C62.3562 48.32 62.0262 49.84 61.3662 51.16C60.7262 52.46 59.8462 53.47 58.7262 54.19C57.6062 54.89 56.3562 55.24 54.9762 55.24C53.8162 55.24 52.7862 55 51.8862 54.52C51.0062 54.04 50.3162 53.42 49.8162 52.66V62.98H44.6862V38.26H49.8162V40.63ZM57.1362 46.6C57.1362 45.32 56.7762 44.32 56.0562 43.6C55.3562 42.86 54.4862 42.49 53.4462 42.49C52.4262 42.49 51.5562 42.86 50.8362 43.6C50.1362 44.34 49.7862 45.35 49.7862 46.63C49.7862 47.91 50.1362 48.92 50.8362 49.66C51.5562 50.4 52.4262 50.77 53.4462 50.77C54.4662 50.77 55.3362 50.4 56.0562 49.66C56.7762 48.9 57.1362 47.88 57.1362 46.6ZM78.7875 55L74.4075 47.05H73.1775V55H68.0475V33.94H76.6575C78.3175 33.94 79.7275 34.23 80.8875 34.81C82.0675 35.39 82.9475 36.19 83.5275 37.21C84.1075 38.21 84.3975 39.33 84.3975 40.57C84.3975 41.97 83.9975 43.22 83.1975 44.32C82.4175 45.42 81.2575 46.2 79.7175 46.66L84.5775 55H78.7875ZM73.1775 43.42H76.3575C77.2975 43.42 77.9975 43.19 78.4575 42.73C78.9375 42.27 79.1775 41.62 79.1775 40.78C79.1775 39.98 78.9375 39.35 78.4575 38.89C77.9975 38.43 77.2975 38.2 76.3575 38.2H73.1775V43.42ZM108.858 33.94V55H103.728V46.33H95.7478V55H90.6178V33.94H95.7478V42.19H103.728V33.94H108.858Z" fill="white"/>
</svg>
